<svg xmlns="http://www.w3.org/2000/svg" fill="#4c4c4c" height="24" viewBox="0 0 24 24" width="24">
    <path d="M0 0h24v24H0z" fill="none" />
    <path d="M 19,4 5,4 C 3.89,4 3,4.9 3,6 l 0,12 c 0,1.1 0.89,2 2,2 l 14,0 c 1.1,0 2,-0.9 2,-2 L 21,6 C 21,4.9 20.1,4 19,4 Z m -8,11 -1.5,0 -2,0 -1.5,0 0,-6 1.5,0 0,4.432204 3.5,0.01695 z m 7,-1 c 0,0.55 -0.45,1 -1,1 l -0.75,0 0,1.5 -1.5,0 0,-1.5 -0.75,0 c -0.55,0 -1,-0.45 -1,-1 l 0,-4 c 0,-0.55 0.45,-1 1,-1 l 3,0 c 0.55,0 1,0.45 1,1 z m -3.5,-0.5 2,0 0,-3 -2,0 z" />
</svg>
